<svg width="36" height="24" viewBox="0 0 36 24" fill="none" xmlns="http://www.w3.org/2000/svg">
<g id="Icon">
<path id="Vector" d="M19.6362 13.1341L14.2452 22.3669L8.85434 13.1341H19.6362ZM21.0804 12.3088H7.4043L14.2452 24L21.0804 12.3088Z" fill="#263238"/>
<path id="Vector_2" d="M29.0089 1.65038L34.3998 10.8833H23.618L29.0089 1.65038ZM29.0089 0L22.168 11.6912H35.8499L29.0089 0Z" fill="#263238"/>
<path id="Vector_3" d="M0.849854 0L6.58576 10.3409L12.8537 0.259661L0.849854 0Z" fill="#2194F3"/>
<path id="Vector_4" d="M14.2454 0.905762L20.262 11.1889H8.21716L14.2454 0.905762Z" fill="#FBC02D"/>
<path id="Vector_5" d="M21.8113 13.4341L27.8337 24H15.5024L21.6242 13.4341H21.8113Z" fill="#FBC02D"/>
<path id="Vector_6" d="M23.1152 12.7935L29.0089 23.1978L34.9845 12.7935H23.1152Z" fill="#2194F3"/>
</g>
</svg>
